<svg xmlns="http://www.w3.org/2000/svg" viewBox="0 0 631.22 786.9"><defs><style>.cls-1{fill:#fff;}</style></defs><g id="Layer_2" data-name="Layer 2"><g id="Layer_1-2" data-name="Layer 1"><path class="cls-1" d="M315.61,0S122,108.88,0,320.34L315.61,786.9,631.22,320.34C509.21,108.88,315.61,0,315.61,0Zm241,254L422.08,399.33l-63.53-110Zm-241-39.38h0l32.66,56.58H282.94Zm-42.94,74.65L209.13,399.33,74.57,254ZM163.86,477.46l32.67-56.58,32.66,56.58Zm72.48-31.22a6.68,6.68,0,0,1-4.63-8.28,14.82,14.82,0,0,1,1.7-4.16q13.47-23.7,26.92-47.4l37.53-66.09,10-17.61a13,13,0,0,1,3-3.73,6.59,6.59,0,0,1,9.24.24,13.41,13.41,0,0,1,2.71,3.51c6.15,11.21,12.57,22.27,18.85,33.41a21.52,21.52,0,0,1,2.54,8.78A23.6,23.6,0,0,1,342,357.33c-.83,1.75-1.88,3.4-2.85,5.07q-11.78,20.43-23.58,40.84-9.27,16.06-18.56,32.13c-3.9,6.7-9.93,10.42-17.62,11.43a15.11,15.11,0,0,1-2,.11H240.24A11.54,11.54,0,0,1,236.34,446.24ZM315.61,671.5l-63.54-194H379.15Zm80-225.56a11.44,11.44,0,0,1-4.68,1H339.23a15.44,15.44,0,0,1-3.71-.39c-4.48-1.11-6.58-4.62-5.44-9.09a13.34,13.34,0,0,1,1.44-3.44l20-34.52q3-5.09,5.9-10.17a14.27,14.27,0,0,1,2.68-3.46,6.75,6.75,0,0,1,9.67,0,14.67,14.67,0,0,1,2.79,3.67l8.73,15.33q8.19,14.37,16.38,28.73a15.07,15.07,0,0,1,1.93,5A6.62,6.62,0,0,1,395.63,445.94ZM402,477.46l32.67-56.58,32.66,56.58Z"/></g></g></svg>