<?xml version="1.0" standalone="no"?>
<!DOCTYPE svg PUBLIC "-//W3C//DTD SVG 20010904//EN"
 "http://www.w3.org/TR/2001/REC-SVG-20010904/DTD/svg10.dtd">
<svg version="1.0" xmlns="http://www.w3.org/2000/svg"
 width="710.000000pt" height="710.000000pt" viewBox="0 0 710.000000 710.000000"
 preserveAspectRatio="xMidYMid meet">
<metadata>
Created by potrace 1.14, written by Peter Selinger 2001-2017
</metadata>
<g transform="translate(0.000000,710.000000) scale(0.100000,-0.100000)"
fill="#000000" stroke="none">
<path d="M3307 7094 c-3 -3 -84 -10 -150 -13 -16 -1 -17 -9 -13 -68 8 -94 15
-196 21 -284 3 -41 7 -103 10 -139 3 -36 7 -99 10 -140 3 -41 8 -106 11 -145
3 -38 7 -97 9 -130 2 -33 6 -98 10 -145 15 -192 22 -290 30 -415 2 -38 6 -97
9 -130 6 -57 11 -134 21 -275 2 -36 7 -96 10 -135 10 -132 15 -210 20 -290 3
-44 8 -105 10 -135 3 -30 8 -91 11 -135 2 -44 7 -111 10 -150 2 -38 6 -97 9
-130 2 -33 7 -96 10 -140 4 -44 8 -105 10 -135 7 -112 15 -226 19 -270 2 -25
7 -90 11 -145 4 -55 9 -116 10 -135 1 -19 6 -84 10 -145 4 -60 9 -117 10 -127
3 -16 7 -121 6 -146 -1 -13 -53 -12 -127 2 -11 2 -48 7 -84 11 -36 4 -67 8
-70 10 -3 2 -34 6 -70 10 -36 4 -72 8 -80 10 -8 1 -40 6 -70 10 -30 3 -67 8
-82 11 -16 2 -40 6 -55 8 -16 3 -53 8 -83 11 -30 4 -64 9 -75 11 -11 3 -40 6
-65 8 -25 3 -76 9 -115 15 -38 5 -92 13 -120 16 -27 4 -61 8 -75 10 -14 3 -41
7 -61 10 -39 6 -88 12 -164 21 -102 10 -104 11 -109 40 -2 11 -18 80 -36 154
-17 74 -33 146 -36 160 -3 14 -16 72 -30 129 -13 57 -27 117 -29 134 -3 17 -7
33 -9 36 -2 3 -7 24 -10 46 -3 22 -10 51 -15 65 -8 21 -27 104 -45 195 -20
101 -37 131 -60 108 -3 -4 -12 -8 -19 -9 -7 -1 -37 -11 -68 -23 l-55 -21 2
-43 c4 -79 16 -342 18 -404 2 -35 -1 -63 -5 -63 -5 0 -9 3 -9 8 0 4 -10 19
-23 33 -33 39 -166 201 -237 288 -118 146 -235 289 -250 305 -17 18 -19 17
-76 -21 -33 -22 -72 -47 -89 -56 -69 -38 -70 -39 -37 -99 16 -29 40 -71 52
-93 12 -22 30 -53 41 -70 10 -16 22 -37 26 -45 6 -14 61 -109 135 -235 16 -27
34 -62 41 -77 6 -16 15 -28 19 -28 4 0 8 -5 8 -10 0 -6 18 -40 40 -76 l40 -66
-33 6 c-17 3 -52 10 -77 16 -25 6 -54 12 -65 14 -11 3 -87 20 -169 40 -82 20
-153 33 -157 29 -4 -4 -10 -32 -13 -60 -3 -29 -9 -74 -12 -101 l-5 -47 63 -29
c35 -16 117 -55 183 -87 66 -31 176 -84 245 -117 69 -32 175 -83 237 -112 130
-62 124 -45 63 -195 -21 -49 -43 -108 -50 -130 -7 -22 -20 -50 -28 -62 -8 -13
-11 -23 -7 -23 4 0 3 -6 -2 -12 -6 -7 -16 -30 -23 -51 -7 -22 -18 -51 -26 -65
-8 -15 -14 -35 -14 -44 0 -9 -4 -19 -9 -22 -5 -3 -11 -16 -15 -29 -3 -13 -13
-41 -23 -63 -9 -21 -17 -41 -18 -44 0 -3 -28 -75 -62 -160 -50 -127 -309 -788
-345 -880 -5 -14 -10 -27 -10 -30 0 -3 -5 -14 -11 -25 -6 -11 -12 -22 -12 -25
0 -3 -11 -31 -23 -63 -12 -32 -22 -62 -22 -67 0 -5 28 -18 63 -29 34 -11 134
-45 222 -76 201 -72 218 -76 224 -67 4 4 69 59 146 122 77 63 151 125 165 137
14 12 35 30 47 40 12 10 41 34 64 53 23 19 47 40 53 45 6 6 47 39 91 74 44 35
85 69 90 75 6 6 29 26 52 44 l41 32 104 -20 c56 -12 119 -23 138 -26 19 -3 38
-8 41 -10 4 -2 24 -6 45 -9 22 -3 49 -7 62 -10 12 -3 30 -7 41 -9 10 -2 34 -7
52 -10 19 -3 67 -12 106 -20 40 -9 85 -18 100 -20 57 -10 89 -16 113 -21 31
-7 278 -55 305 -60 11 -2 70 -13 130 -25 61 -12 124 -24 140 -27 17 -3 35 -6
40 -8 22 -5 81 -15 100 -18 50 -7 39 13 185 -352 40 -99 77 -191 83 -205 5
-14 11 -29 13 -35 4 -14 102 -255 113 -280 5 -11 29 -68 52 -128 38 -96 45
-107 63 -101 53 17 263 76 281 78 11 2 20 4 20 5 0 2 8 4 18 7 9 2 25 6 35 8
9 3 18 5 20 6 1 2 5 3 10 4 4 1 22 6 40 10 17 4 33 13 33 19 2 15 9 228 9 245
0 6 -1 22 -1 35 -1 12 2 175 6 362 4 187 8 393 9 457 1 89 6 121 17 135 9 10
63 74 120 143 57 69 110 131 118 139 62 66 216 311 194 311 -4 0 -3 4 2 8 17
11 65 180 75 262 5 40 2 440 -6 740 -3 151 -7 355 -8 452 0 98 -3 178 -6 178
-3 0 -5 28 -5 62 1 55 3 62 25 72 14 6 27 13 30 17 6 8 53 24 63 21 4 -1 7 3
7 8 0 6 6 10 14 10 13 0 387 187 456 228 19 11 53 30 75 42 22 12 66 40 99 61
32 21 60 39 63 39 8 0 138 94 141 102 2 5 10 8 17 8 7 0 15 3 17 8 2 4 26 25
53 47 65 51 183 169 219 218 89 122 104 235 46 354 -49 101 -187 234 -364 351
-76 51 -144 92 -151 92 -8 0 -15 4 -17 9 -1 5 -89 51 -194 102 -226 111 -243
119 -450 202 -87 35 -168 67 -179 72 -11 4 -27 9 -35 11 -8 2 -23 7 -35 12
-80 38 -679 239 -795 267 -3 1 -25 8 -50 15 -52 16 -43 13 -100 29 -76 20 -85
27 -119 92 -18 35 -63 118 -98 184 -36 66 -84 154 -106 195 -22 41 -51 95 -64
119 -13 24 -48 89 -78 145 -145 274 -129 251 -174 252 -22 1 -42 0 -44 -2z
m1463 -1759 c138 -46 209 -221 141 -352 -61 -119 -221 -171 -338 -109 -117 62
-167 201 -115 319 56 126 184 184 312 142z"/>
<path d="M4315 7024 c-3 -13 -7 -35 -10 -48 -2 -12 -7 -41 -11 -62 -3 -21 -12
-77 -20 -124 -8 -47 -17 -101 -20 -120 -6 -38 -10 -63 -18 -96 -2 -12 -7 -45
-11 -75 -4 -30 -9 -57 -10 -60 -2 -3 -7 -28 -10 -55 -6 -48 -13 -95 -18 -117
-2 -11 3 -13 163 -52 114 -29 278 -79 325 -100 17 -7 41 -16 54 -20 23 -7 24
-6 17 26 -4 19 -9 41 -10 49 -2 8 -7 35 -11 60 -14 93 -16 103 -20 110 -2 3
-6 26 -9 51 -3 24 -8 55 -11 69 -6 26 -11 54 -20 105 -3 17 -7 40 -9 51 -5 26
-17 92 -21 119 -2 11 -11 61 -20 110 -9 50 -19 105 -22 122 -6 34 -12 38 -78
48 -22 4 -49 9 -60 11 -22 4 -77 13 -112 19 -18 3 -24 -2 -28 -21z"/>
<path d="M5732 6028 c-48 -13 -117 -86 -127 -134 -18 -83 -1 -141 58 -197 22
-20 54 -41 71 -46 45 -12 124 -5 155 15 38 25 71 57 71 70 0 6 6 17 14 23 25
21 16 138 -13 184 -46 74 -141 109 -229 85z"/>
<path d="M5203 1903 c-20 -43 -52 -102 -70 -131 -18 -29 -33 -55 -33 -58 0 -5
-42 -66 -51 -74 -3 -3 -12 -16 -19 -30 -22 -41 -141 -187 -222 -272 -22 -22
-22 -20 5 -50 26 -29 84 -95 228 -264 143 -166 193 -225 219 -254 22 -26 26
-30 125 -145 33 -39 66 -76 73 -84 7 -8 20 -24 29 -37 8 -13 19 -24 23 -24 9
0 41 31 183 179 53 56 97 107 97 113 0 6 -13 40 -30 75 -16 34 -30 65 -30 68
0 2 -15 36 -34 74 -19 38 -32 72 -30 74 3 2 -2 10 -11 17 -8 7 -15 18 -15 24
0 11 -59 145 -154 349 -20 43 -36 80 -36 83 0 2 -15 37 -34 76 -19 40 -46 98
-59 128 -14 30 -35 78 -47 105 -13 28 -31 69 -41 93 -10 23 -21 42 -23 42 -3
0 -22 -35 -43 -77z"/>
<path d="M2213 1168 c-1 -24 -13 -143 -18 -168 -2 -14 -6 -56 -9 -95 -3 -38
-7 -79 -10 -90 -2 -11 -7 -54 -11 -95 -4 -41 -9 -86 -10 -100 -1 -14 -6 -59
-10 -100 -5 -41 -9 -93 -9 -114 l-1 -39 80 -24 c44 -13 105 -31 135 -40 30 -8
62 -18 70 -21 31 -11 68 -11 77 1 5 6 19 35 31 62 11 28 43 99 71 159 28 59
51 109 51 111 0 2 19 43 42 92 23 48 43 90 43 93 1 3 15 34 32 70 48 101 84
183 80 186 -1 2 -29 7 -62 13 -56 9 -71 12 -135 26 -14 3 -36 7 -50 10 -23 4
-85 17 -150 30 -14 3 -47 10 -75 15 -27 6 -61 12 -75 15 -83 16 -87 16 -87 3z"/>
</g>
</svg>
