<svg width="287" height="355" xmlns="http://www.w3.org/2000/svg" xml:space="preserve" version="1.1">

 <g>
  <title>Layer 1</title>
  <g stroke="null" id="svg_1">
   <path stroke="null" id="svg_2" fill="#FEFDFF" d="m175.2,42.3l6.7,-39.8l13.4,2.4l8.3,45.9c0.1,0 -11.4,-5.1 -28.4,-8.5z" class="st0"/>
   <path stroke="null" id="svg_3" fill="#FEFDFF" d="m228.2,255.4c0,0 -6.7,17.5 -22.8,33.7l36.3,42.2l14.1,-14.7l-27.6,-61.2z" class="st0"/>
   <polygon stroke="null" id="svg_4" fill="#FEFDFF" points="108.60000610351562,302.29998779296875 76.79998779296875,295.8999938964844 72.39999389648438,336.6000061035156 90.39999389648438,341.8999938964844 " class="st0"/>
   <circle stroke="null" id="svg_5" fill="#FEFDFF" r="9.9" cy="63" cx="255.7" class="st0"/>
   <path stroke="null" id="svg_6" fill="#FEFDFF" d="m285.8,112.7c-5,-32.4 -124.4,-64.3 -124.4,-64.3l-26,-48.4l-12.4,1.1l14.8,205.1l-75.2,-10.2l-12.2,-53.2l-8.7,3.2l1.2,26l-27.1,-33.1l-11,7l21.7,37.9l-25.3,-5.9l-1.2,10.8l42.2,20.1l-38,96.9l25.2,8.8l37.9,-31.5l78.4,15.2l21.9,54.7l24.1,-6.6l1.1,-61.3l14.3,-17c8.1,-9.7 12.5,-21.9 12.3,-34.6l-1.6,-67.2c-0.1,0 71.6,-29.8 68,-53.5zm-85.4,0c-7,0 -12.6,-5.7 -12.6,-12.6c0,-7 5.7,-12.6 12.6,-12.6s12.6,5.7 12.6,12.6c0,7 -5.6,12.6 -12.6,12.6z" class="st0"/>
  </g>
 </g>
</svg>