<svg xmlns="http://www.w3.org/2000/svg" viewBox="0 0 941.8 723.72"><defs><style>.cls-1{fill:#fff;}</style></defs><g id="Layer_2" data-name="Layer 2"><g id="Layer_1-2" data-name="Layer 1"><path class="cls-1" d="M28.44,353.12,8.53,364.5l-1.89-1.43q13.26-14.69,13.27-38.86v-245q0-23.7-4.27-40.29A69.77,69.77,0,0,0,0,9.48l1.9-1.9A236.88,236.88,0,0,1,39.81,23.46Q60.68,34.13,73.47,45l28-16.12v1.9Q86.26,47.4,86.27,69.2v3.32L132.24,0V13.27q28,18,47.4,34.84t19.43,35.31v80.11q-51.66,24.65-76.31,40.28a337.63,337.63,0,0,1,53.09,27.26Q201,247,201,261.17v99.06q0,37.45,11.38,48.35l-1.9,1.89A241.54,241.54,0,0,1,159,374.92q-24.42-21.8-24.41-38.39V239.36q0-14.22-28-24.17-14.7,11.37-20.38,20.38V355a93.62,93.62,0,0,0,5.21,32q5.2,14.46,11.38,21.57l-1.9,1.89Q46,377.77,28.44,353.12ZM118.5,192.91q13.26-9.47,14.22-10.43v-82q0-9-6.88-16.36T105.7,66.83L86.27,99.54v118Q92.9,210,118.5,192.91Z"/><path class="cls-1" d="M254.05,478.73q46.93-40.29,65.41-71.1l1.9,1.42a102.16,102.16,0,0,0-6.64,36.5q0,21.33,9,30.81l9,9.95q19.92-14.22,19.91-42.66V305.25L302.4,410.47,236,344.11l.48-170.63q0-12.31,5.45-21.33a55.54,55.54,0,0,1,14.22-15.64,297.56,297.56,0,0,1,25.35-16.59q21.33-12.8,34.61-22.28l1.89,1.9q-15.18,20.38-15.17,47.4V311.41l22.76,20.38,27-53.56v-109q0-15.17,9.72-24.41t32.94-23.46a374.63,374.63,0,0,0,37-23.7l1.9,1.9Q419,119.92,419,146.94V437.49q-24.64,9-63,42.9t-58.3,62.8Z"/><path class="cls-1" d="M489.15,379.9q-25.59-19.2-25.6-41.95V138.4a85.74,85.74,0,0,0-3.08-24.17,29.82,29.82,0,0,0-12.08-16.59V95.75q10.89-3.31,27-14.46t31.05-30.1A120.1,120.1,0,0,0,528,7.58l1.89,1.9V114.23l41.24-16.59,1.9,1.9q-16.12,10.9-29.63,29.15T529.91,173V338q0,29.87,4.51,43.37t17.77,27.26l-1.9,1.89Q514.74,399.1,489.15,379.9Z"/><path class="cls-1" d="M579.68,345.54q-11.37-8.54-11.37-17.07V183a29.32,29.32,0,0,1,5-16.83,39.82,39.82,0,0,1,13-12.08l93.37-56.41,55.93,91.48-101,87.21v25.6q0,7.59,10.42,15.17l48.82,36.49L725.67,319l8.53,10.9-67.3,80.58ZM681.59,212.82,638.93,140.3a6.72,6.72,0,0,0-4.26,6.64V253.11Z"/><path class="cls-1" d="M740.36,408.58q13.26-18,13.27-47.4V76.31q0-14.22,11.62-25.59t39.1-29.39q5.21-3.79,13-8.77T835.16,0V2.37Q820,22.76,820,49.3V338.43a32,32,0,0,1-10.19,23.7q-10.2,9.94-35.31,26.54-19.9,12.79-32.23,21.8Z"/><path class="cls-1" d="M847,408.58q13.28-18,13.28-47.4V76.31q0-14.22,11.61-25.59T911,21.33q5.22-3.79,13-8.77T941.8,0V2.37Q926.62,22.76,926.63,49.3V338.43a32,32,0,0,1-10.19,23.7q-10.2,9.94-35.31,26.54-19.9,12.79-32.23,21.8Z"/><path class="cls-1" d="M419,437.49s79.41,39.24,120.17,105.7l38.65-59.59C503.15,445.7,448.39,376,448.39,376L419,400.5Z"/><path class="cls-1" d="M419.79,475.41s-61.1,34.36-99.6,101.09l99.6,147.22L519.38,576.5C480.88,509.77,419.79,475.41,419.79,475.41Zm76.06,80.15-42.46,45.86-20.05-34.73Zm-76.06-12.42h0L430.09,561H409.48Zm-13.55,23.55-20.05,34.73-42.47-45.86ZM371.9,626.08l10.31-17.86,10.31,17.86Zm22.87-9.85a2.12,2.12,0,0,1-1.46-2.62,4.42,4.42,0,0,1,.54-1.31l8.49-15,11.85-20.85,3.15-5.56a4.29,4.29,0,0,1,.94-1.18,2.2,2.2,0,0,1,1.51-.55,2.25,2.25,0,0,1,1.41.63,4,4,0,0,1,.85,1.11c1.95,3.53,4,7,5.95,10.54a6.67,6.67,0,0,1,.8,2.77,7.36,7.36,0,0,1-.67,3.92c-.27.55-.6,1.07-.9,1.6q-3.72,6.45-7.44,12.88c-2,3.39-3.9,6.77-5.86,10.14a7.18,7.18,0,0,1-5.56,3.61,4.49,4.49,0,0,1-.64,0H396A3.69,3.69,0,0,1,394.77,616.23Zm25,71.08-20.05-61.23h40.1ZM445,616.13a3.6,3.6,0,0,1-1.48.3c-2.76,0-5.52,0-8.28,0h0c-2.68,0-5.36,0-8,0a4.57,4.57,0,0,1-1.17-.13,2.18,2.18,0,0,1-1.72-2.86,4.2,4.2,0,0,1,.46-1.09l6.31-10.89,1.87-3.21a4.29,4.29,0,0,1,.84-1.09,2.13,2.13,0,0,1,3.05,0,4.5,4.5,0,0,1,.88,1.16l2.76,4.84q2.58,4.53,5.17,9.06a4.73,4.73,0,0,1,.61,1.59A2.09,2.09,0,0,1,445,616.13Zm2,10,10.31-17.86,10.31,17.86Z"/></g></g></svg>