<svg width="1434" height="385" xmlns="http://www.w3.org/2000/svg" xml:space="preserve" version="1.1">

 <g>
  <title>Layer 1</title>
  <g id="svg_12">
   <path id="svg_13" fill="#FFFFFF" d="m626.99999,285.5c10,2.2 29.1,7.9 49.5,7.9c26,0 35.7,-8.5 39.8,-30.9c3.4,-17.6 1.3,-31.5 -21,-42.9l-11.3,-5.7c-27.2,-14.2 -40.7,-29.3 -33.5,-66.2c7.2,-35.6 31,-50.7 67.6,-50.7c21.6,0 44.4,4.1 53.2,7.2l-10.6,27.1c-12.5,-2.8 -28.8,-5.4 -42.3,-5.4c-20,0 -31.9,6 -36,26.8c-3.4,19.5 3.4,26.5 19.4,34.7l11,5.7c29.1,14.8 43.8,30.9 35.7,72.2c-7.2,38.4 -24.7,57 -69.2,57c-28.2,0 -54.5,-6.3 -62.9,-9.1l10.6,-27.7z" class="st0"/>
   <path id="svg_14" fill="#FFFFFF" d="m863.99999,234.7c0,0 -6.6,17.6 -13.1,31.5l-10,20.2c-12.2,25.8 -21.6,36.9 -42.3,36.9c-20,0 -29.7,-9.1 -29.4,-37.2l1.6,-124.8l33.5,0l-3.8,119.1c0,9.8 0.6,14.2 5,14.2c4.4,0 6.9,-4.7 11.9,-14.5l37.6,-79.1l8.5,-37.8l29.7,0l-5.9,37.8l7.2,79.4c0.9,9.5 2.2,14.2 5.6,14.2c5,0 8.1,-4.4 11.6,-14.5l41.9,-118.8l34.1,0l-47.9,125.1c-10,27.7 -23.2,36.9 -41.9,36.9c-20.7,0 -26.9,-11 -29.1,-37.2l-1.6,-17.6c-1.3,-15.1 -1.6,-33.7 -1.6,-33.7l-1.6,0l0,-0.1z" class="st0"/>
   <path id="svg_15" fill="#FFFFFF" d="m1053.29999,158.5c16.6,0 40.7,6 57.6,12.9l-20.7,106.8c-3.1,16.4 -0.6,19.2 15.7,15.8l-0.3,23.3c-5.6,1.9 -15,3.8 -24.1,3.8c-13.8,0 -20.3,-6 -23.8,-13.9l-0.9,0c-11.6,7.6 -21.6,15.1 -43.2,15.1c-28.8,0 -50.4,-16.1 -38.8,-76.9c11.6,-59.2 32.5,-86.9 78.5,-86.9zm-45,86.6c-8.1,41.6 3.1,48.8 16.3,48.8c12.2,0 24.1,-5 31.3,-10.4l17.8,-92.7c-5.3,-1.9 -13.8,-4.1 -23.5,-4.1c-20.3,0.1 -32.5,10.8 -41.9,58.4z" class="st0"/>
   <path id="svg_16" fill="#FFFFFF" d="m1174.49999,322.3c-16,0 -28.8,-3.5 -31,-3.8l-0.6,0c0,0 -1.3,10.1 -5.9,34.4l-5.6,28.4l-33.2,0l40.7,-210.5c20.3,-7.9 38.8,-12.3 56.7,-12.3c41.6,0 64.2,16.1 51.6,80.7c-10.7,55.7 -32.6,83.1 -72.7,83.1zm-25.4,-32.1c5.9,2.2 15.7,3.8 24.1,3.8c20,0 32.2,-11.7 40.7,-54.8c7.5,-39.7 0.3,-52.3 -22.2,-52.3c-9.1,0 -16.9,1.6 -23.5,4.1l-19.1,99.2z" class="st0"/>
  </g>
  <g id="svg_17">
   <path id="svg_18" fill="#FFFFFF" d="m42.39999,99.9l55.4,0c48.2,0 68.2,18 58.5,68.4c-9.7,50.7 -32.9,68.4 -80.8,68.4l-26,0l-16,82.9l-33.5,0l42.4,-219.7zm34.8,107.7c26.6,0 39.4,-8.5 45.4,-39.4c6.3,-30.9 -3.4,-39.4 -29.4,-39.4l-22.5,0l-15.3,78.8l21.8,0z" class="st0"/>
   <path id="svg_19" fill="#FFFFFF" d="m220.19999,158.5c16.6,0 40.7,6 57.6,12.9l-20.7,106.8c-3.1,16.4 -0.6,19.2 15.7,15.8l-0.3,23.3c-5.6,1.9 -15,3.8 -24.1,3.8c-13.8,0 -20.3,-6 -23.8,-13.9l-0.9,0c-11.6,7.6 -21.6,15.1 -43.2,15.1c-28.8,0 -50.4,-16.1 -38.8,-76.9c11.5,-59.2 32.5,-86.9 78.5,-86.9zm-45.1,86.6c-8.1,41.6 3.1,48.8 16.3,48.8c12.2,0 24.1,-5 31.3,-10.4l17.8,-92.7c-5.3,-1.9 -13.8,-4.1 -23.5,-4.1c-20.3,0.1 -32.5,10.8 -41.9,58.4z" class="st0"/>
   <path id="svg_20" fill="#FFFFFF" d="m385.19999,190.6c0,0 -12.2,-2.5 -24.7,-2.5c-19.7,0 -27.2,9.5 -31.3,30.3l-19.1,101.2l-33.5,0l20,-104c8.8,-45.4 29.7,-57 64.5,-57c17.2,0 34.1,3.5 34.1,3.5l-10,28.5z" class="st0"/>
   <path id="svg_21" fill="#FFFFFF" d="m410.19999,120.7l33.8,-3.5l-8.5,44.1l39.8,0l-10.3,27.4l-34.7,0l-17.9,91.4c-2.2,12.6 1.9,13.9 11.3,13.9c7.8,0 20,-3.2 21.9,-3.5l-0.3,25.8c-4.4,2.2 -21,5.7 -35.4,5.7c-23.5,0 -37.6,-6.3 -30.7,-41.3l31,-160z" class="st0"/>
   <path id="svg_22" fill="#FFFFFF" d="m468.09999,254.9l18.2,-93.6l33.5,0l-17.9,91.7c-4.4,23 -0.3,32.5 18.5,32.5c11,0 21.6,-3.2 28.8,-6.9l22.5,-117.2l33.5,0l-30,155.4c-8.1,42.5 -30.4,54.8 -55.1,60.5c-12.8,3.2 -28.2,5 -43.8,7.2l-0.9,-26.8c14.7,-1.6 23.5,-3.2 38.2,-7.2c15,-4.4 25.4,-11.3 29.7,-34l2.2,-11l-0.6,0c-9.1,4.7 -20,8.5 -34.4,8.5c-26.4,-0.2 -51.4,-11.8 -42.4,-59.1z" class="st0"/>
  </g>
  <polygon id="svg_23" fill="#FFED00" points="1306.4999694824219,158.8000030517578 1285.4999694824219,133.3000030517578 1370.3000183105469,56.69999694824219 1398.0999450683594,90.5999984741211 " class="st1"/>
  <polygon id="svg_24" fill="#FF6300" points="1253.0999450683594,118.69999694824219 1223.9999694824219,103 1273.3999938964844,0 1311.9999694824219,20.799999237060547 " class="st2"/>
  <polygon id="svg_25" fill="#00FFFF" points="1314.0999450683594,192.89999389648438 1323.8000183105469,224.39999389648438 1434.3999938964844,196 1421.4999694824219,154.10000610351562 " class="st3"/>
 </g>
</svg>